<?xml version="1.0" encoding="UTF-8" standalone="no"?>
<svg
   xmlns:dc="http://purl.org/dc/elements/1.1/"
   xmlns:cc="http://creativecommons.org/ns#"
   xmlns:rdf="http://www.w3.org/1999/02/22-rdf-syntax-ns#"
   xmlns:svg="http://www.w3.org/2000/svg"
   xmlns="http://www.w3.org/2000/svg"
   viewBox="0 0 263.25333 467.95999"
   height="467.95999"
   width="263.25333"
   xml:space="preserve"
   id="svg2"
   version="1.1"><metadata
     id="metadata8"><rdf:RDF><cc:Work
         rdf:about=""><dc:format>image/svg+xml</dc:format><dc:type
           rdf:resource="http://purl.org/dc/dcmitype/StillImage" /></cc:Work></rdf:RDF></metadata><defs
     id="defs6"><clipPath
       id="clipPath20"
       clipPathUnits="userSpaceOnUse"><path
         id="path18"
         d="M 0,0 H 1974 V 3509.75 H 0 Z" /></clipPath></defs><g
     transform="matrix(1.3333333,0,0,-1.3333333,0,467.96)"
     id="g10"><g
       transform="scale(0.1)"
       id="g12"><g
         id="g14"><g
           clip-path="url(#clipPath20)"
           id="g16"><path
             id="path22"
             style="fill:#4eb9ea;fill-opacity:1;fill-rule:nonzero;stroke:none"
             d="M 987.027,0 C 1094.91,0 1182.76,87.7422 1182.76,195.398 H 791.621 C 791.621,87.7422 878.91,0 987.027,0" /><path
             id="path24"
             style="fill:#fadc30;fill-opacity:1;fill-rule:nonzero;stroke:none"
             d="m 988.215,3509.75 c -0.512,0 -1.024,0 -1.024,0 h -0.449 C 442.148,3508.79 0,3047.74 0,2478.87 0,2152.88 253.707,1790.1 400.648,1476.79 c 4.192,-9.73 6.231,-22.13 9.684,-32.83 2.488,-10.92 5.203,-21.9 7.981,-33.56 5.437,-23.67 9.167,-47.81 11.886,-71.58 3.512,-26.15 5.774,-52.3 8.492,-78.34 2.946,-26.83 6.446,-54.24 11.442,-80.83 5.426,-26.38 11.883,-52.42 21.844,-77.77 8.941,-24.91 20.66,-49.59 35.32,-71.9 15.398,-23.2 34.808,-44.039 57.68,-60.671 27.117,-20.61 58.925,-34.868 91.988,-44.039 45.047,-13.129 91.242,-19.129 137.543,-22.872 57.68,-4.527 116.836,-4.976 175.023,-5.207 58.419,0 116.889,0.457 175.589,3.508 48.97,2.723 97.92,7.141 145.71,17.891 35.76,8.14 70.86,20.379 102.44,39.281 24.57,14.949 46.76,34.301 63.85,57.169 16.99,21.17 29.67,45.05 39.07,69.86 10.18,24.67 17.65,50.48 23.37,76.86 5.94,26.6 10.25,53.44 13.41,80.27 3.52,26.15 5.78,52.52 9.52,78.56 2.49,24.35 6.45,49.02 10.86,73.12 4.54,22.91 10.19,45.04 16.2,67.4 1,4.99 2.03,11.21 4.23,15.68 146.95,313.31 400.6,676.09 400.6,1002.08 0,568.87 -441.86,1029.92 -986.165,1030.88" /><path
             id="path26"
             style="fill:#4eb9ea;fill-opacity:1;fill-rule:nonzero;stroke:none"
             d="M 1342.1,492.129 H 1075.27 L 1375,614.512 c 0.16,0.109 0.22,0.109 0.4,0.218 4,1.711 7.75,3.852 11.42,6.11 1.24,0.68 2.66,1.25 3.85,2.039 0.79,0.57 1.47,1.242 2.26,1.82 7.37,5.321 13.65,11.77 18.91,18.781 0.73,1.032 1.7,1.93 2.38,2.95 1.92,2.832 3.33,6.011 4.87,9.05 1.02,1.942 2.32,3.739 3.17,5.77 2.14,5.219 3.85,10.66 4.97,16.09 0.18,0.898 0.18,1.801 0.28,2.601 0.86,4.879 1.49,9.739 1.49,14.719 0,0.121 0.05,0.231 0.05,0.328 0,1.711 -0.39,3.301 -0.51,4.992 -0.23,3.848 -0.4,7.809 -1.19,11.77 -0.74,3.852 -2.03,7.48 -3.28,11.109 -0.56,1.68 -0.79,3.391 -1.47,4.981 -0.07,0.09 -0.11,0.211 -0.17,0.332 -1.76,4.289 -4.02,8.269 -6.4,12.117 -0.68,1.012 -1.13,2.25 -1.81,3.281 -1.59,2.371 -3.62,4.41 -5.44,6.559 -4.02,4.871 -8.42,9.281 -13.3,13.019 -1.64,1.364 -3.1,2.84 -4.87,4.082 -1.63,1.02 -3.45,1.809 -5.15,2.719 -7.47,4.301 -15.39,7.692 -24,9.731 -0.56,0.109 -1.02,0.34 -1.58,0.449 -1.81,0.34 -3.79,0.34 -5.66,0.57 -3.85,0.563 -7.7,1.133 -11.61,1.25 -0.16,0 -0.34,0 -0.51,0 H 632.281 c -48,0 -86.945,-38.949 -86.945,-86.961 0,-47.988 38.945,-86.929 86.945,-86.929 H 899.109 L 599.391,485.672 c -0.172,0 -0.219,-0.113 -0.403,-0.223 -3.953,-1.578 -7.695,-3.738 -11.312,-6 -1.297,-0.789 -2.77,-1.359 -3.969,-2.148 -0.445,-0.34 -0.848,-0.68 -1.242,-1.031 -7.922,-5.54 -14.606,-12.329 -20.145,-19.918 -0.679,-0.911 -1.535,-1.704 -2.16,-2.614 -1.976,-2.929 -3.445,-6.109 -5.031,-9.269 -0.969,-1.821 -2.156,-3.629 -3,-5.547 -2.156,-5.211 -3.859,-10.531 -4.981,-16.07 -0.175,-0.801 -0.113,-1.602 -0.285,-2.391 -0.851,-4.859 -1.476,-9.84 -1.476,-14.941 0,-0.122 -0.051,-0.231 -0.051,-0.329 0,-1.703 0.394,-3.293 0.508,-4.98 0.23,-3.981 0.394,-7.813 1.191,-11.789 0.738,-3.731 2.031,-7.352 3.231,-10.973 0.558,-1.699 0.843,-3.39 1.515,-5.097 0.067,-0.114 0.117,-0.223 0.184,-0.223 2.984,-7.367 7.183,-13.93 11.937,-20.047 1.137,-1.473 2.325,-2.941 3.563,-4.301 4.93,-5.66 10.422,-10.75 16.637,-14.941 0.461,-0.231 0.972,-0.442 1.421,-0.801 5.883,-3.73 12.282,-6.559 19.024,-8.809 1.746,-0.699 3.445,-1.148 5.258,-1.699 7.074,-1.82 14.379,-3.191 22.027,-3.191 0.164,0 0.332,-0.102 0.496,-0.102 0.117,0 0.184,0 0.293,0 H 1342.1 c 48,0 86.95,38.942 86.95,86.953 0,48 -38.95,86.938 -86.95,86.938" /><path
             id="path28"
             style="fill:#ffffff;fill-opacity:1;fill-rule:nonzero;stroke:none"
             d="m 426.688,1968.52 c -29.321,0 -57.961,14.89 -74.317,41.84 -14.605,24.05 -351.35147,596.2 202.578,1157.84 33.746,34.25 88.707,34.65 123.004,0.85 34.195,-33.69 34.543,-88.76 0.856,-122.94 -458.891,-465.23 -189.454,-926.23 -177.746,-945.59 24.8,-41.09 11.664,-94.58 -29.368,-119.38 -14.097,-8.54 -29.66,-12.62 -45.007,-12.62" /></g></g></g></g></svg>