<?xml version="1.0" standalone="no"?>
<!DOCTYPE svg PUBLIC "-//W3C//DTD SVG 20010904//EN"
 "http://www.w3.org/TR/2001/REC-SVG-20010904/DTD/svg10.dtd">
<svg version="1.0" xmlns="http://www.w3.org/2000/svg"
 width="200.000000pt" height="200.000000pt" viewBox="0 0 200.000000 200.000000"
 preserveAspectRatio="xMidYMid meet">
<metadata>
Created by potrace 1.11, written by Peter Selinger 2001-2013
</metadata>
<g transform="translate(0.000000,200.000000) scale(0.100000,-0.100000)"
fill="#000000" stroke="none">
<path d="M960 1854 c-155 -30 -305 -101 -421 -198 -192 -160 -310 -413 -308
-660 0 -55 3 -119 7 -141 l7 -40 38 56 c33 50 37 63 37 120 0 99 33 239 79
333 100 206 276 354 498 418 113 33 307 32 413 -1 294 -91 493 -306 555 -597
60 -282 -60 -602 -290 -772 -73 -54 -199 -116 -280 -137 -153 -40 -341 -26
-488 35 -128 53 -270 164 -334 262 l-26 39 -28 -33 c-16 -18 -28 -39 -29 -45
0 -23 105 -137 175 -190 166 -125 335 -183 536 -183 227 0 426 78 595 233 178
164 274 387 274 637 0 341 -182 633 -488 785 -119 59 -199 77 -357 80 -77 2
-151 1 -165 -1z"/>
<path d="M1020 1623 c-44 -21 -226 -205 -329 -332 -181 -223 -328 -437 -506
-735 -128 -214 -170 -298 -162 -320 11 -28 25 -18 84 55 275 342 400 486 535
622 59 59 115 107 124 107 19 0 20 3 -31 -135 -48 -128 -54 -225 -16 -256 14
-11 39 -19 62 -19 71 0 227 67 359 154 60 40 86 46 75 19 -34 -89 -49 -150
-52 -218 -4 -67 -1 -85 15 -111 49 -77 144 -46 357 116 119 90 229 195 221
209 -10 16 -17 14 -77 -22 -30 -19 -103 -64 -163 -100 -60 -37 -118 -67 -129
-67 -17 0 -19 5 -14 39 2 21 41 122 85 224 118 270 134 337 89 358 -33 15 -91
-9 -303 -129 -199 -111 -256 -137 -280 -128 -29 11 -11 81 61 246 90 207 116
284 118 347 2 86 -43 114 -123 76z"/>
</g>
</svg>
